<?xml version="1.0" standalone="no"?>
<svg xmlns:xlink="http://www.w3.org/1999/xlink" id="wave" style="transform:rotate(180deg); transition: 0.3s" viewBox="0 0 1440 100" version="1.1" xmlns="http://www.w3.org/2000/svg"><defs><linearGradient id="sw-gradient-0" x1="0" x2="0" y1="1" y2="0"><stop stop-color="rgba(255, 249, 234, 1)" offset="0%"/><stop stop-color="rgba(255, 249, 234, 1)" offset="100%"/></linearGradient></defs><path style="transform:translate(0, 0px); opacity:1" fill="url(#sw-gradient-0)" d="M0,30L24,26.7C48,23,96,17,144,15C192,13,240,17,288,28.3C336,40,384,60,432,58.3C480,57,528,33,576,35C624,37,672,63,720,71.7C768,80,816,70,864,61.7C912,53,960,47,1008,43.3C1056,40,1104,40,1152,43.3C1200,47,1248,53,1296,50C1344,47,1392,33,1440,33.3C1488,33,1536,47,1584,58.3C1632,70,1680,80,1728,83.3C1776,87,1824,83,1872,75C1920,67,1968,53,2016,40C2064,27,2112,13,2160,15C2208,17,2256,33,2304,46.7C2352,60,2400,70,2448,65C2496,60,2544,40,2592,41.7C2640,43,2688,67,2736,63.3C2784,60,2832,30,2880,26.7C2928,23,2976,47,3024,56.7C3072,67,3120,63,3168,51.7C3216,40,3264,20,3312,10C3360,0,3408,0,3432,0L3456,0L3456,100L3432,100C3408,100,3360,100,3312,100C3264,100,3216,100,3168,100C3120,100,3072,100,3024,100C2976,100,2928,100,2880,100C2832,100,2784,100,2736,100C2688,100,2640,100,2592,100C2544,100,2496,100,2448,100C2400,100,2352,100,2304,100C2256,100,2208,100,2160,100C2112,100,2064,100,2016,100C1968,100,1920,100,1872,100C1824,100,1776,100,1728,100C1680,100,1632,100,1584,100C1536,100,1488,100,1440,100C1392,100,1344,100,1296,100C1248,100,1200,100,1152,100C1104,100,1056,100,1008,100C960,100,912,100,864,100C816,100,768,100,720,100C672,100,624,100,576,100C528,100,480,100,432,100C384,100,336,100,288,100C240,100,192,100,144,100C96,100,48,100,24,100L0,100Z"/></svg>